<svg id="visual" viewBox="0 0 900 600" width="900" height="600" xmlns="http://www.w3.org/2000/svg" xmlns:xlink="http://www.w3.org/1999/xlink" version="1.1"><rect x="0" y="0" width="900" height="600" fill="#ffffff"></rect><defs><linearGradient id="grad1_0" x1="33.3%" y1="0%" x2="100%" y2="100%"><stop offset="20%" stop-color="#05a04b" stop-opacity="1"></stop><stop offset="80%" stop-color="#05a04b" stop-opacity="1"></stop></linearGradient></defs><defs><linearGradient id="grad1_1" x1="33.3%" y1="0%" x2="100%" y2="100%"><stop offset="20%" stop-color="#05a04b" stop-opacity="1"></stop><stop offset="80%" stop-color="#75c185" stop-opacity="1"></stop></linearGradient></defs><defs><linearGradient id="grad1_2" x1="33.3%" y1="0%" x2="100%" y2="100%"><stop offset="20%" stop-color="#bbe0c1" stop-opacity="1"></stop><stop offset="80%" stop-color="#75c185" stop-opacity="1"></stop></linearGradient></defs><defs><linearGradient id="grad1_3" x1="33.3%" y1="0%" x2="100%" y2="100%"><stop offset="20%" stop-color="#bbe0c1" stop-opacity="1"></stop><stop offset="80%" stop-color="#ffffff" stop-opacity="1"></stop></linearGradient></defs><defs><linearGradient id="grad2_0" x1="0%" y1="0%" x2="66.7%" y2="100%"><stop offset="20%" stop-color="#05a04b" stop-opacity="1"></stop><stop offset="80%" stop-color="#05a04b" stop-opacity="1"></stop></linearGradient></defs><defs><linearGradient id="grad2_1" x1="0%" y1="0%" x2="66.7%" y2="100%"><stop offset="20%" stop-color="#75c185" stop-opacity="1"></stop><stop offset="80%" stop-color="#05a04b" stop-opacity="1"></stop></linearGradient></defs><defs><linearGradient id="grad2_2" x1="0%" y1="0%" x2="66.7%" y2="100%"><stop offset="20%" stop-color="#75c185" stop-opacity="1"></stop><stop offset="80%" stop-color="#bbe0c1" stop-opacity="1"></stop></linearGradient></defs><defs><linearGradient id="grad2_3" x1="0%" y1="0%" x2="66.7%" y2="100%"><stop offset="20%" stop-color="#ffffff" stop-opacity="1"></stop><stop offset="80%" stop-color="#bbe0c1" stop-opacity="1"></stop></linearGradient></defs><g transform="translate(900, 0)"><path d="M0 432.7C-39.5 408.2 -79 383.8 -119.9 369C-160.8 354.2 -203.1 349.1 -240.4 330.9C-277.7 312.6 -310.1 281.2 -339.8 246.9C-369.5 212.5 -396.5 175.3 -411.5 133.7C-426.5 92.1 -429.6 46 -432.7 0L0 0Z" fill="#ddf0e0"></path><path d="M0 324.5C-29.6 306.2 -59.3 287.8 -89.9 276.8C-120.6 265.7 -152.3 261.9 -180.3 248.2C-208.3 234.5 -232.6 210.9 -254.8 185.2C-277.1 159.4 -297.3 131.5 -308.6 100.3C-319.9 69.1 -322.2 34.5 -324.5 0L0 0Z" fill="#99d0a2"></path><path d="M0 216.3C-19.8 204.1 -39.5 191.9 -59.9 184.5C-80.4 177.1 -101.5 174.6 -120.2 165.4C-138.9 156.3 -155.1 140.6 -169.9 123.4C-184.7 106.3 -198.2 87.7 -205.7 66.9C-213.3 46 -214.8 23 -216.3 0L0 0Z" fill="#4db068"></path><path d="M0 108.2C-9.9 102.1 -19.8 95.9 -30 92.3C-40.2 88.6 -50.8 87.3 -60.1 82.7C-69.4 78.2 -77.5 70.3 -84.9 61.7C-92.4 53.1 -99.1 43.8 -102.9 33.4C-106.6 23 -107.4 11.5 -108.2 0L0 0Z" fill="#05a04b"></path></g><g transform="translate(0, 600)"><path d="M0 -432.7C36.1 -400.8 72.2 -368.9 117.1 -360.5C162 -352 215.7 -367.1 254.3 -350C292.9 -333 316.3 -283.8 330.1 -239.8C343.8 -195.9 347.8 -157.1 363.3 -118C378.8 -78.9 405.7 -39.5 432.7 0L0 0Z" fill="#ddf0e0"></path><path d="M0 -324.5C27.1 -300.6 54.2 -276.7 87.8 -270.3C121.5 -264 161.8 -275.3 190.7 -262.5C219.7 -249.7 237.3 -212.8 247.6 -179.9C257.9 -146.9 260.9 -117.9 272.5 -88.5C284.1 -59.2 304.3 -29.6 324.5 0L0 0Z" fill="#99d0a2"></path><path d="M0 -216.3C18.1 -200.4 36.1 -184.4 58.6 -180.2C81 -176 107.9 -183.5 127.2 -175C146.4 -166.5 158.2 -141.9 165 -119.9C171.9 -97.9 173.9 -78.6 181.7 -59C189.4 -39.5 202.9 -19.7 216.3 0L0 0Z" fill="#4db068"></path><path d="M0 -108.2C9 -100.2 18.1 -92.2 29.3 -90.1C40.5 -88 53.9 -91.8 63.6 -87.5C73.2 -83.2 79.1 -70.9 82.5 -60C86 -49 87 -39.3 90.8 -29.5C94.7 -19.7 101.4 -9.9 108.2 0L0 0Z" fill="#05a04b"></path></g></svg>