<svg id="visual" viewBox="0 0 900 900" width="900" height="900" xmlns="http://www.w3.org/2000/svg" xmlns:xlink="http://www.w3.org/1999/xlink" version="1.1"><g><g transform="translate(585 651)"><path d="M0 -180L78.1 -162.2L140.8 -112.2L175.5 -40.1L175.5 40.1L140.8 112.2L78.1 162.2L0 180L-78.1 162.2L-140.8 112.2L-175.5 40.1L-175.5 -40.1L-140.8 -112.2L-78.1 -162.2Z" stroke="#05a04b" fill="none" stroke-width="2"></path></g><g transform="translate(90 784)"><path d="M0 -114L49.5 -102.7L89.1 -71.1L111.1 -25.4L111.1 25.4L89.1 71.1L49.5 102.7L0 114L-49.5 102.7L-89.1 71.1L-111.1 25.4L-111.1 -25.4L-89.1 -71.1L-49.5 -102.7Z" stroke="#05a04b" fill="none" stroke-width="2"></path></g><g transform="translate(823 293)"><path d="M0 -109L47.3 -98.2L85.2 -68L106.3 -24.3L106.3 24.3L85.2 68L47.3 98.2L0 109L-47.3 98.2L-85.2 68L-106.3 24.3L-106.3 -24.3L-85.2 -68L-47.3 -98.2Z" stroke="#05a04b" fill="none" stroke-width="2"></path></g></g></svg>